<svg width="60" height="60" viewBox="0 0 60 60" fill="none" xmlns="http://www.w3.org/2000/svg">
<path fill-rule="evenodd" clip-rule="evenodd" d="M23.2449 35.6094C22.3408 35.6094 21.6129 36.4025 21.9281 37.2532C22.8461 39.731 25.3206 41.4091 28.7767 41.6647V43.0656C28.7767 43.6467 29.2459 44.1178 29.8248 44.1178C30.4036 44.1178 30.8728 43.6467 30.8728 43.0656V41.6647C35.4319 41.3045 38.2617 38.7657 38.2617 35.009C38.2617 31.8012 36.3577 29.9485 32.3227 28.9022L30.8728 28.5248V20.8569C32.6038 21.0282 33.9018 21.7866 34.5848 22.9532C34.953 23.5821 35.5499 24.1162 36.2765 24.1162C37.1888 24.1162 37.9175 23.3072 37.57 22.4604C36.6095 20.12 34.1629 18.5288 30.8728 18.3181V16.9344C30.8728 16.3533 30.4036 15.8823 29.8248 15.8823C29.2459 15.8823 28.7767 16.3533 28.7767 16.9344V18.3696C24.8814 18.8327 22.2088 21.3372 22.2088 24.7337C22.2088 27.6671 24.1477 29.7427 27.554 30.6176L28.7767 30.9435V39.0745C26.9955 38.8095 25.6417 37.9917 24.9408 36.7793C24.5746 36.1459 23.9743 35.6094 23.2449 35.6094ZM28.3749 27.8729C26.2788 27.3411 25.1609 26.209 25.1609 24.6137C25.1609 22.7096 26.5758 21.3029 28.7767 20.9255V27.9758L28.3749 27.8729ZM31.5716 31.6468C34.1568 32.2987 35.2922 33.3794 35.2922 35.2148C35.2922 37.4277 33.6328 38.903 30.8728 39.1259V31.4753L31.5716 31.6468Z" fill="#FF8429"/>
<path d="M45.2214 10.5021C44.8668 10.1462 44.2919 10.1462 43.9373 10.5021C43.9287 10.5107 43.9207 10.5198 43.9132 10.5294L39.7095 15.907L37.175 13.3626C36.8204 13.0066 36.2455 13.0066 35.8909 13.3626C35.5364 13.7186 35.5364 14.2957 35.8909 14.6517L39.0948 17.8682C39.4494 18.2241 40.0243 18.2241 40.3789 17.8682C40.3868 17.8602 40.3942 17.8519 40.4012 17.8431L45.2343 11.7781C45.5759 11.4211 45.5716 10.8537 45.2214 10.5021Z" fill="#FF8429"/>
<path fill-rule="evenodd" clip-rule="evenodd" d="M9.73001 1.7645C10.8284 0.661835 12.6091 0.661832 13.7075 1.7645L14.5312 2.5915L15.355 1.7645C16.4534 0.661835 18.2341 0.661832 19.3325 1.7645L20.1562 2.5915L20.98 1.7645C22.0784 0.661835 23.8591 0.661832 24.9575 1.7645L25.7812 2.5915L26.605 1.7645C27.7034 0.661835 29.4841 0.661832 30.5825 1.7645L31.4062 2.5915L32.23 1.7645C33.3284 0.661835 35.1091 0.661832 36.2075 1.7645L37.0312 2.5915L37.855 1.7645C38.9534 0.661835 40.7341 0.661832 41.8325 1.7645L42.6562 2.5915L43.48 1.7645C44.5784 0.661835 46.3591 0.661832 47.4575 1.7645L48.2886 2.59891C49.9249 1.22047 52.5 2.37056 52.5 4.58805V54.8272C52.5 55.576 52.2037 56.2942 51.6762 56.8237L50.27 58.2355C49.1716 59.3382 47.3909 59.3382 46.2925 58.2355L45.4688 57.4085L44.645 58.2355C43.5466 59.3382 41.7659 59.3382 40.6675 58.2355L39.8438 57.4085L39.02 58.2355C37.9216 59.3382 36.1409 59.3382 35.0425 58.2355L34.2188 57.4085L33.395 58.2355C32.2966 59.3382 30.5159 59.3382 29.4175 58.2355L28.5938 57.4085L27.77 58.2355C26.6716 59.3382 24.8909 59.3382 23.7925 58.2355L22.9688 57.4085L22.145 58.2355C21.0466 59.3382 19.2659 59.3382 18.1675 58.2355L17.3438 57.4085L16.52 58.2355C15.4216 59.3382 13.6409 59.3382 12.5425 58.2355L11.7114 57.4011C10.075 58.7795 7.5 57.6294 7.5 55.4119V5.17283C7.5 4.42398 7.79632 3.70579 8.32376 3.17628L9.73001 1.7645ZM11.7188 3.76105L10.3125 5.17283L10.3125 54.9043C11.3097 54.249 12.6608 54.3611 13.5369 55.2407L14.5313 56.2389L15.355 55.4119C16.4534 54.3093 18.2341 54.3093 19.3325 55.4119L20.1563 56.2389L20.98 55.4119C22.0784 54.3093 23.8591 54.3093 24.9575 55.4119L25.7813 56.2389L26.605 55.4119C27.7034 54.3093 29.4841 54.3093 30.5825 55.4119L31.4062 56.2389L32.23 55.4119C33.3284 54.3093 35.1091 54.3093 36.2075 55.4119L37.0312 56.2389L37.855 55.4119C38.9534 54.3093 40.7341 54.3093 41.8325 55.4119L42.6562 56.2389L43.48 55.4119C44.5784 54.3093 46.3591 54.3093 47.4575 55.4119L48.2812 56.2389L49.6875 54.8272V5.09573C48.6903 5.75102 47.3392 5.63888 46.4631 4.75933L45.4688 3.76105L44.645 4.58805C43.5466 5.69072 41.7659 5.69071 40.6675 4.58805L39.8438 3.76105L39.02 4.58805C37.9216 5.69072 36.1409 5.69071 35.0425 4.58805L34.2188 3.76105L33.395 4.58805C32.2966 5.69072 30.5159 5.69071 29.4175 4.58805L28.5938 3.76105L27.77 4.58805C26.6716 5.69072 24.8909 5.69071 23.7925 4.58805L22.9688 3.76105L22.145 4.58805C21.0466 5.69072 19.2659 5.69071 18.1675 4.58805L17.3438 3.76105L16.52 4.58805C15.4216 5.69072 13.6409 5.69071 12.5425 4.58805L11.7188 3.76105Z" fill="#FF8429"/>
</svg>
