<svg width="60" height="60" viewBox="0 0 60 60" fill="none" xmlns="http://www.w3.org/2000/svg">
<path fill-rule="evenodd" clip-rule="evenodd" d="M28.7589 0.950902C26.3837 0.774189 24.4378 2.36875 23.8101 4.32953L17.9664 22.5847C17.8186 23.0464 17.7435 23.5268 17.7435 24.0099V50.9858C17.7435 53.6623 20.0007 55.832 22.7852 55.832H41.0204C46.8879 55.832 52.0294 52.0572 53.5733 46.6161L58.7266 28.4536C60.3544 22.7166 55.8613 17.0623 49.6748 17.0623H37.9106C37.0024 17.0623 36.2116 16.3402 36.1817 15.3907C36.0086 9.90245 35.3753 6.40955 34.1674 4.23015C33.5337 3.0868 32.7218 2.26451 31.7203 1.72811C30.7438 1.20512 29.7117 1.02179 28.7589 0.950902ZM27.0227 5.27965C27.2629 4.52925 27.9323 4.12985 28.4995 4.17205C29.2107 4.22496 29.7016 4.34539 30.0843 4.55036C30.442 4.74193 30.8255 5.07182 31.2009 5.74913C32.0111 7.21106 32.65 10.0334 32.822 15.4885C32.9045 18.106 35.1062 20.2931 37.9106 20.2931H49.6748C53.645 20.2931 56.5285 23.9218 55.4838 27.6035L50.3305 45.7661C49.1855 49.8016 45.3722 52.6012 41.0204 52.6012H22.7852C21.8571 52.6012 21.1047 51.878 21.1047 50.9858V24.0099C21.1047 23.8488 21.1297 23.6887 21.179 23.5348L27.0227 5.27965Z" fill="#FF8429"/>
<path fill-rule="evenodd" clip-rule="evenodd" d="M5.97929 25.1393C3.19479 25.1393 0.9375 27.309 0.9375 29.9855V54.2163C0.9375 56.8928 3.19479 59.0625 5.97929 59.0625H9.34048C12.125 59.0625 14.3823 56.8928 14.3823 54.2163V29.9855C14.3823 27.309 12.125 25.1393 9.34048 25.1393H5.97929ZM4.29869 29.9855C4.29869 29.0933 5.05112 28.3701 5.97929 28.3701H9.34048C10.2686 28.3701 11.0211 29.0933 11.0211 29.9855V54.2163C11.0211 55.1085 10.2686 55.8317 9.34048 55.8317H5.97929C5.05112 55.8317 4.29869 55.1085 4.29869 54.2163V29.9855Z" fill="#FF8429"/>
</svg>
