<svg width="64" height="64" viewBox="0 0 64 64" fill="none" xmlns="http://www.w3.org/2000/svg">
<path d="M3.58333 14C2.1566 14 1 15.1513 1 16.5714C1 17.9916 2.1566 19.1429 3.58333 19.1429H60.4167C61.8434 19.1429 63 17.9916 63 16.5714C63 15.1513 61.8434 14 60.4167 14H3.58333Z" fill="#FF8429"/>
<path d="M3.58333 29.4286C2.1566 29.4286 1 30.5798 1 32C1 33.4202 2.1566 34.5714 3.58333 34.5714H60.4167C61.8434 34.5714 63 33.4202 63 32C63 30.5798 61.8434 29.4286 60.4167 29.4286H3.58333Z" fill="#FF8429"/>
<path d="M3.58333 44.8571C2.1566 44.8571 1 46.0084 1 47.4286C1 48.8487 2.1566 50 3.58333 50H60.4167C61.8434 50 63 48.8487 63 47.4286C63 46.0084 61.8434 44.8571 60.4167 44.8571H3.58333Z" fill="#FF8429"/>
</svg>
