<svg width="25" height="25" viewBox="0 0 40 40" fill="none" xmlns="http://www.w3.org/2000/svg">
<g opacity="0.5">
<path fill-rule="evenodd" clip-rule="evenodd" d="M30.7639 15.6944C30.7639 24.0171 24.0171 30.7639 15.6944 30.7639C7.37182 30.7639 0.625 24.0171 0.625 15.6944C0.625 7.37182 7.37182 0.625 15.6944 0.625C24.0171 0.625 30.7639 7.37182 30.7639 15.6944ZM28.6111 15.6944C28.6111 22.8281 22.8281 28.6111 15.6944 28.6111C8.56077 28.6111 2.77778 22.8281 2.77778 15.6944C2.77778 8.56077 8.56077 2.77778 15.6944 2.77778C22.8281 2.77778 28.6111 8.56077 28.6111 15.6944Z" fill="#101010"/>
<path d="M30.4486 28.9264C30.0283 28.506 29.3467 28.506 28.9264 28.9264C28.506 29.3467 28.506 30.0283 28.9264 30.4486L37.5375 39.0597C37.9578 39.4801 38.6394 39.4801 39.0597 39.0597C39.4801 38.6394 39.4801 37.9578 39.0597 37.5375L30.4486 28.9264Z" fill="#101010"/>
</g>
</svg>
