<svg width="30" height="30" viewBox="0 0 30 30" fill="none" xmlns="http://www.w3.org/2000/svg">
<path fill-rule="evenodd" clip-rule="evenodd" d="M26.1631 1.19944C25.1889 0.225184 23.6093 0.225186 22.635 1.19945L3.02184 20.8126L2.51565 21.3188C2.19592 21.6385 1.9691 22.0392 1.85944 22.4778L0.509687 27.8768C0.266073 28.8513 1.14874 29.7339 2.1232 29.4903L7.52219 28.1406C7.96085 28.0309 8.36145 27.8041 8.68118 27.4844L9.18633 26.9792C9.1861 26.9794 9.18656 26.979 9.18633 26.9792C9.18656 26.979 9.18748 26.9781 9.18771 26.9778L28.8006 7.36498C29.7748 6.39072 29.7748 4.81113 28.8006 3.83687L26.1631 1.19944ZM8.599 25.2145L25.7178 8.09567L21.9043 4.28221L4.78554 21.401L8.599 25.2145ZM3.61527 22.5828C3.54857 22.6714 3.50003 22.7728 3.47294 22.8812L2.25765 27.7423L7.11881 26.5271C7.22718 26.5 7.32857 26.4514 7.41719 26.3847L3.61527 22.5828ZM23.8111 2.37548C24.1358 2.05073 24.6623 2.05073 24.9871 2.37548L27.6245 5.01291C27.9493 5.33766 27.9493 5.86419 27.6245 6.18894L26.8938 6.91964L23.0804 3.10618L23.8111 2.37548Z" fill="#FAFAFA"/>
</svg>
