<svg width="40" height="40" viewBox="0 0 40 40" fill="none" xmlns="http://www.w3.org/2000/svg">
<path fill-rule="evenodd" clip-rule="evenodd" d="M28.9434 20C28.9434 24.9066 24.9393 28.8842 20 28.8842C15.0607 28.8842 11.0566 24.9066 11.0566 20C11.0566 15.0934 15.0607 11.1158 20 11.1158C24.9393 11.1158 28.9434 15.0934 28.9434 20ZM26.7076 20C26.7076 23.68 23.7045 26.6632 20 26.6632C16.2955 26.6632 13.2924 23.68 13.2924 20C13.2924 16.32 16.2955 13.3368 20 13.3368C23.7045 13.3368 26.7076 16.32 26.7076 20Z" fill="#FF8429"/>
<path fill-rule="evenodd" clip-rule="evenodd" d="M16.7169 2.28909C18.3358 0.0703029 21.6642 0.0703034 23.2831 2.28909C24.316 3.70475 26.1502 4.2968 27.8235 3.75461C30.4461 2.90482 33.1388 4.84825 33.1356 7.58853C33.1336 9.33692 34.2673 10.8869 35.9418 11.4253C38.5663 12.2691 39.5948 15.4136 37.9708 17.6287C36.9347 19.042 36.9347 20.958 37.9708 22.3713C39.5948 24.5863 38.5663 27.7309 35.9418 28.5747C34.2673 29.1131 33.1336 30.6631 33.1356 32.4115C33.1388 35.1517 30.4461 37.0952 27.8235 36.2454C26.1502 35.7032 24.316 36.2953 23.2831 37.7109C21.6642 39.9297 18.3358 39.9297 16.7169 37.7109C15.6841 36.2953 13.8498 35.7032 12.1765 36.2454C9.55393 37.0952 6.86122 35.1517 6.86439 32.4115C6.86641 30.6631 5.73275 29.1131 4.05823 28.5747C1.43372 27.7309 0.405195 24.5863 2.02919 22.3713C3.06534 20.958 3.06534 19.042 2.02919 17.6287C0.405195 15.4136 1.43372 12.2691 4.05823 11.4253C5.73275 10.8869 6.86641 9.33692 6.86439 7.58854C6.86122 4.84825 9.55394 2.90482 12.1765 3.75461C13.8498 4.2968 15.6841 3.70474 16.7169 2.28909ZM11.4831 5.86617C14.0791 6.70734 16.9249 5.78881 18.5273 3.59253C19.2535 2.59724 20.7465 2.59724 21.4727 3.59253C23.0752 5.78881 25.9209 6.70734 28.5169 5.86617C29.6933 5.48498 30.9012 6.35675 30.8998 7.58599C30.8966 10.2985 32.6554 12.7032 35.2533 13.5385C36.4306 13.917 36.892 15.3275 36.1635 16.3212C34.556 18.5138 34.556 21.4862 36.1635 23.6788C36.892 24.6725 36.4306 26.083 35.2533 26.4615C32.6554 27.2968 30.8966 29.7015 30.8998 32.414C30.9012 33.6432 29.6933 34.515 28.5169 34.1338C25.9209 33.2927 23.0752 34.2112 21.4727 36.4075C20.7465 37.4028 19.2535 37.4028 18.5273 36.4075C16.9249 34.2112 14.0791 33.2927 11.4831 34.1338C10.3067 34.515 9.09882 33.6432 9.10024 32.414C9.10338 29.7015 7.34459 27.2968 4.74671 26.4615C3.56941 26.083 3.10804 24.6725 3.83652 23.6788C5.44404 21.4862 5.44404 18.5138 3.83652 16.3212C3.10804 15.3275 3.56941 13.917 4.74671 13.5385C7.34459 12.7032 9.10338 10.2985 9.10024 7.58599C9.09882 6.35676 10.3067 5.48498 11.4831 5.86617Z" fill="#FF8429"/>
</svg>
