<svg width="60" height="60" viewBox="0 0 60 60" fill="none" xmlns="http://www.w3.org/2000/svg">
<path d="M6.75007 6.5625C7.5526 6.5625 8.20319 7.21833 8.20319 8.02734V47.5781L9.94693 45.2344C10.4285 44.5872 11.3393 44.456 11.9813 44.9414C12.6233 45.4268 12.7534 46.345 12.2719 46.9922L8.14506 52.5391C8.10375 52.5946 8.06 52.6468 8.01408 52.6958C7.76417 53.1387 7.29173 53.4375 6.75007 53.4375C6.20841 53.4375 5.73597 53.1387 5.48605 52.6958C5.44014 52.6468 5.39638 52.5946 5.35507 52.5391L1.22821 46.9922C0.746688 46.345 0.876805 45.4268 1.51883 44.9414C2.16086 44.456 3.07168 44.5872 3.5532 45.2344L5.29695 47.5781V8.02734C5.29695 7.21833 5.94753 6.5625 6.75007 6.5625Z" fill="#FF8429"/>
<path d="M51.7968 12.4219V51.9727C51.7968 52.7817 52.4474 53.4375 53.2499 53.4375C54.0525 53.4375 54.7031 52.7817 54.7031 51.9727V12.4219L56.4468 14.7656C56.9283 15.4128 57.8391 15.544 58.4812 15.0586C59.1232 14.5732 59.2533 13.655 58.7718 13.0078L54.6449 7.46094C54.6036 7.40541 54.5599 7.35318 54.5139 7.30423C54.264 6.86126 53.7916 6.5625 53.2499 6.5625C52.7083 6.5625 52.2358 6.86126 51.9859 7.30423C51.94 7.35318 51.8962 7.40541 51.8549 7.46094L47.7281 13.0078C47.2466 13.655 47.3767 14.5732 48.0187 15.0586C48.6607 15.544 49.5715 15.4128 50.0531 14.7656L51.7968 12.4219Z" fill="#FF8429"/>
<path fill-rule="evenodd" clip-rule="evenodd" d="M20.8089 38.1483C19.501 38.1483 18.448 39.3004 18.9039 40.5362C20.232 44.1355 23.8117 46.5732 28.8115 46.9445V48.9794C28.8115 49.8235 29.4904 50.5078 30.3278 50.5078C31.1651 50.5078 31.844 49.8235 31.844 48.9794V46.9445C38.4394 46.4212 42.5332 42.7333 42.5332 37.2762C42.5332 32.6164 39.7787 29.9252 33.9414 28.4052L31.844 27.857V16.7185C34.348 16.9673 36.2258 18.069 37.2139 19.7636C37.7466 20.6772 38.6101 21.453 39.6613 21.453C40.981 21.453 42.0352 20.2778 41.5325 19.0477C40.1429 15.648 36.6035 13.3367 31.844 13.0306V11.0206C31.844 10.1765 31.1651 9.49219 30.3278 9.49219C29.4904 9.49219 28.8115 10.1765 28.8115 11.0206V13.1054C23.1763 13.7781 19.31 17.4162 19.31 22.3501C19.31 26.6111 22.115 29.6262 27.0427 30.8971L28.8115 31.3705V43.1818C26.2348 42.7968 24.2763 41.6089 23.2623 39.8477C22.7326 38.9277 21.8641 38.1483 20.8089 38.1483ZM28.2303 26.9101C25.1979 26.1377 23.5807 24.493 23.5807 22.1756C23.5807 19.4097 25.6275 17.3664 28.8115 16.8182V27.0596L28.2303 26.9101ZM32.8547 32.3922C36.5947 33.3391 38.2373 34.9089 38.2373 37.5752C38.2373 40.7896 35.8366 42.9326 31.844 43.2566V32.143L32.8547 32.3922Z" fill="#FF8429"/>
</svg>
