<svg width="32" height="32" viewBox="0 0 32 32" fill="none" xmlns="http://www.w3.org/2000/svg">
<path d="M19.6577 9.29971C19.0001 8.7399 18.9112 7.74151 19.4593 7.06975C20.0073 6.39798 20.9847 6.30721 21.6423 6.86702L30.9332 14.7759C30.9606 14.799 30.9873 14.8229 31.0131 14.8478C31.0447 14.8781 31.0748 14.9097 31.1036 14.9425C31.35 15.2228 31.5 15.5935 31.5 16C31.5 16.4065 31.35 16.7772 31.1036 17.0575C31.0748 17.0903 31.0447 17.1219 31.0131 17.1522C30.9873 17.1771 30.9606 17.201 30.9332 17.2241L21.6423 25.133C20.9847 25.6928 20.0073 25.602 19.4593 24.9303C18.9112 24.2585 19.0001 23.2601 19.6577 22.7003L25.6688 17.5833H2.05C1.19396 17.5833 0.5 16.8744 0.5 16C0.5 15.1256 1.19396 14.4167 2.05 14.4167H25.6688L19.6577 9.29971Z" fill="#212121"/>
</svg>
