<svg width="40" height="40" viewBox="0 0 40 40" fill="none" xmlns="http://www.w3.org/2000/svg">
<path d="M19.9913 7.26925C20.0591 7.7989 19.7293 8.2896 19.2547 8.36526C18.3553 8.50866 16.9237 8.9948 15.6532 9.97191C14.3965 10.9384 13.3426 12.3454 13.0437 14.3468C12.9649 14.8745 12.5177 15.231 12.0448 15.1431C11.5719 15.0551 11.2524 14.556 11.3313 14.0282C11.7268 11.3796 13.1325 9.55747 14.668 8.37653C16.1897 7.20625 17.8832 6.62676 19.0092 6.44724C19.4838 6.37157 19.9235 6.7396 19.9913 7.26925Z" fill="#FF8429"/>
<path fill-rule="evenodd" clip-rule="evenodd" d="M16.5897 2.89861C16.8484 1.59775 17.8884 0.625 19.1319 0.625H20.8681C22.1116 0.625 23.1516 1.59775 23.4103 2.89861C26.2556 3.49986 28.2779 4.85231 29.6615 6.50206C31.5218 8.72007 32.1528 11.3876 32.1528 13.2188V26.7812C32.1528 27.3163 32.5414 27.75 33.0208 27.75C34.4591 27.75 35.625 29.0512 35.625 30.6562V32.5938C35.625 34.1988 34.4591 35.5 33.0208 35.5H24.8307C24.388 36.2883 23.8227 37.1349 23.1433 37.833C22.325 38.6737 21.2644 39.375 20 39.375C18.7356 39.375 17.675 38.6737 16.8567 37.833C16.1773 37.1349 15.6121 36.2883 15.1693 35.5H6.97917C5.54093 35.5 4.375 34.1988 4.375 32.5938V30.6562C4.375 29.0512 5.54093 27.75 6.97917 27.75C7.45858 27.75 7.84722 27.3163 7.84722 26.7812V13.2188C7.84722 11.3876 8.47821 8.72007 10.3385 6.50206C11.7221 4.85231 13.7444 3.49986 16.5897 2.89861ZM11.606 7.82607C10.0808 9.64452 9.58333 11.8208 9.58333 13.2188V26.7812C9.58333 28.3863 8.41741 29.6875 6.97917 29.6875C6.49975 29.6875 6.11111 30.1212 6.11111 30.6562V32.5938C6.11111 33.1288 6.49975 33.5625 6.97917 33.5625H33.0208C33.5002 33.5625 33.8889 33.1288 33.8889 32.5938V30.6562C33.8889 30.1212 33.5002 29.6875 33.0208 29.6875C31.5826 29.6875 30.4167 28.3863 30.4167 26.7812V13.2188C30.4167 11.8208 29.9192 9.64452 28.394 7.82607C26.8916 6.03468 24.3148 4.5 20 4.5C15.6852 4.5 13.1084 6.03468 11.606 7.82607ZM18.0326 36.4075C17.768 36.1357 17.5186 35.8269 17.287 35.5H22.713C22.4814 35.8269 22.2321 36.1357 21.9674 36.4076C21.3227 37.07 20.6635 37.4375 20 37.4375C19.3366 37.4375 18.6773 37.07 18.0326 36.4075Z" fill="#FF8429"/>
</svg>
