<svg width="64" height="64" viewBox="0 0 64 64" fill="none" xmlns="http://www.w3.org/2000/svg">
<path fill-rule="evenodd" clip-rule="evenodd" d="M32 35.1C38.8483 35.1 44.4 29.5483 44.4 22.7C44.4 15.8517 38.8483 10.3 32 10.3C25.1517 10.3 19.6 15.8517 19.6 22.7C19.6 29.5483 25.1517 35.1 32 35.1ZM32 32C37.1362 32 41.3 27.8362 41.3 22.7C41.3 17.5638 37.1362 13.4 32 13.4C26.8638 13.4 22.7 17.5638 22.7 22.7C22.7 27.8362 26.8638 32 32 32Z" fill="#FF8429"/>
<path d="M32 38.2C29.0387 38.2 24.5679 38.6785 20.7772 40.1673C17.0442 41.6333 13.4 44.3425 13.4 49.05C13.4 49.906 14.094 50.6 14.95 50.6C15.806 50.6 16.5 49.906 16.5 49.05C16.5 46.3175 18.5391 44.3767 21.9103 43.0527C25.2238 41.7515 29.278 41.3 32 41.3C34.722 41.3 38.7762 41.7515 42.0896 43.0527C45.4609 44.3767 47.5 46.3175 47.5 49.05C47.5 49.906 48.194 50.6 49.05 50.6C49.906 50.6 50.6 49.906 50.6 49.05C50.6 44.3425 46.9558 41.6333 43.2228 40.1673C39.4321 38.6785 34.9613 38.2 32 38.2Z" fill="#FF8429"/>
<path fill-rule="evenodd" clip-rule="evenodd" d="M32 63C49.1208 63 63 49.1208 63 32C63 14.8792 49.1208 1 32 1C14.8792 1 1 14.8792 1 32C1 49.1208 14.8792 63 32 63ZM32 59.9C47.4087 59.9 59.9 47.4087 59.9 32C59.9 16.5913 47.4087 4.1 32 4.1C16.5913 4.1 4.1 16.5913 4.1 32C4.1 47.4087 16.5913 59.9 32 59.9Z" fill="#FF8429"/>
</svg>
