<svg width="221" height="64" viewBox="0 0 221 64" fill="none" xmlns="http://www.w3.org/2000/svg">
<path d="M7.90643 12.0822V49.7523H0.35083V12.0822H7.90643Z" fill="#FAFAFA"/>
<path d="M23.1968 24.1712C24.1683 22.804 25.4995 21.6706 27.1905 20.7711C28.9175 19.8357 30.8784 19.368 33.0731 19.368C35.6276 19.368 37.9303 19.9976 39.9811 21.2569C42.0678 22.5161 43.7049 24.3151 44.8922 26.6537C46.1155 28.9564 46.7271 31.6368 46.7271 34.695C46.7271 37.7533 46.1155 40.4697 44.8922 42.8443C43.7049 45.1829 42.0678 46.9999 39.9811 48.2951C37.9303 49.5904 35.6276 50.238 33.0731 50.238C30.8784 50.238 28.9355 49.7883 27.2445 48.8888C25.5894 47.9893 24.2402 46.856 23.1968 45.4888V64H15.6412V19.8537H23.1968V24.1712ZM39.0096 34.695C39.0096 32.8961 38.6319 31.349 37.8763 30.0537C37.1567 28.7225 36.1853 27.7151 34.962 27.0315C33.7747 26.3479 32.4794 26.0061 31.0762 26.0061C29.709 26.0061 28.4138 26.3659 27.1905 27.0855C26.0032 27.7691 25.0318 28.7765 24.2762 30.1077C23.5566 31.4389 23.1968 33.004 23.1968 34.803C23.1968 36.6019 23.5566 38.167 24.2762 39.4982C25.0318 40.8295 26.0032 41.8549 27.1905 42.5745C28.4138 43.2581 29.709 43.5999 31.0762 43.5999C32.4794 43.5999 33.7747 43.2401 34.962 42.5205C36.1853 41.8009 37.1567 40.7755 37.8763 39.4443C38.6319 38.113 39.0096 36.53 39.0096 34.695Z" fill="#FAFAFA"/>
<path d="M80.2813 34.1554C80.2813 35.2347 80.2093 36.2062 80.0654 37.0697H58.2081C58.388 39.2284 59.1436 40.9194 60.4748 42.1427C61.806 43.366 63.4431 43.9776 65.3859 43.9776C68.1923 43.9776 70.1891 42.7723 71.3764 40.3617H79.5257C78.6622 43.2401 77.0072 45.6147 74.5606 47.4856C72.114 49.3205 69.1098 50.238 65.5478 50.238C62.6695 50.238 60.079 49.6084 57.7764 48.3491C55.5097 47.0538 53.7287 45.2369 52.4335 42.8983C51.1742 40.5596 50.5446 37.8612 50.5446 34.803C50.5446 31.7088 51.1742 28.9924 52.4335 26.6537C53.6927 24.3151 55.4557 22.5161 57.7224 21.2569C59.9891 19.9976 62.5976 19.368 65.5478 19.368C68.3902 19.368 70.9267 19.9796 73.1574 21.2029C75.4241 22.4262 77.1691 24.1712 78.3924 26.4378C79.6516 28.6685 80.2813 31.241 80.2813 34.1554ZM72.4558 31.9966C72.4198 30.0537 71.7182 28.5066 70.351 27.3553C68.9838 26.168 67.3108 25.5743 65.332 25.5743C63.4611 25.5743 61.878 26.15 60.5827 27.3013C59.3235 28.4167 58.5499 29.9818 58.2621 31.9966H72.4558ZM65.4399 13.1076L57.3986 17.641V12.1362L65.4399 7.76471L73.4273 12.1362V17.641L65.4399 13.1076Z" fill="#FAFAFA"/>
<path d="M99.0725 50.1301C96.446 50.1301 94.0714 49.6803 91.9486 48.7808C89.8618 47.8814 88.2068 46.5861 86.9835 44.8951C85.7602 43.2041 85.1306 41.2072 85.0946 38.9046H93.1899C93.2978 40.4517 93.8375 41.675 94.8089 42.5745C95.8163 43.4739 97.1835 43.9237 98.9105 43.9237C100.674 43.9237 102.059 43.5099 103.066 42.6824C104.074 41.8189 104.577 40.7035 104.577 39.3363C104.577 38.221 104.235 37.3035 103.552 36.5839C102.868 35.8644 102.005 35.3067 100.961 34.9109C99.9539 34.4792 98.5508 34.0114 96.7518 33.5077C94.3052 32.7881 92.3084 32.0866 90.7613 31.403C89.2502 30.6834 87.9369 29.622 86.8216 28.2188C85.7422 26.7796 85.2025 24.8728 85.2025 22.4981C85.2025 20.2674 85.7602 18.3246 86.8755 16.6695C87.9909 15.0145 89.556 13.7552 91.5708 12.8917C93.5856 11.9923 95.8883 11.5425 98.4788 11.5425C102.365 11.5425 105.513 12.496 107.923 14.4028C110.37 16.2738 111.719 18.9002 111.971 22.2823H103.66C103.588 20.987 103.03 19.9256 101.987 19.0981C100.979 18.2346 99.6301 17.8029 97.9391 17.8029C96.464 17.8029 95.2767 18.1806 94.3772 18.9362C93.5137 19.6918 93.0819 20.7891 93.0819 22.2283C93.0819 23.2357 93.4057 24.0812 94.0534 24.7648C94.737 25.4124 95.5645 25.9521 96.5359 26.3839C97.5433 26.7796 98.9465 27.2474 100.745 27.7871C103.192 28.5066 105.189 29.2262 106.736 29.9458C108.283 30.6654 109.614 31.7448 110.73 33.1839C111.845 34.6231 112.403 36.512 112.403 38.8506C112.403 40.8654 111.881 42.7364 110.838 44.4634C109.794 46.1903 108.265 47.5755 106.25 48.6189C104.235 49.6263 101.843 50.1301 99.0725 50.1301Z" fill="#FAFAFA"/>
<path d="M136.061 19.4219C138.328 19.4219 140.343 19.9256 142.106 20.933C143.869 21.9045 145.236 23.3616 146.207 25.3045C147.215 27.2114 147.718 29.5141 147.718 32.2125V49.7523H140.163V33.2379C140.163 30.8633 139.569 29.0463 138.382 27.7871C137.195 26.4918 135.575 25.8442 133.525 25.8442C131.438 25.8442 129.783 26.4918 128.56 27.7871C127.372 29.0463 126.779 30.8633 126.779 33.2379V49.7523H119.223V9.81552H126.779V23.5775C127.75 22.2823 129.045 21.2748 130.664 20.5553C132.283 19.7997 134.082 19.4219 136.061 19.4219Z" fill="#FAFAFA"/>
<path d="M168.45 50.238C165.571 50.238 162.981 49.6084 160.678 48.3491C158.375 47.0538 156.558 45.2369 155.227 42.8983C153.932 40.5596 153.284 37.8612 153.284 34.803C153.284 31.7448 153.95 29.0463 155.281 26.7077C156.648 24.369 158.501 22.5701 160.84 21.3108C163.179 20.0156 165.787 19.368 168.665 19.368C171.544 19.368 174.152 20.0156 176.491 21.3108C178.829 22.5701 180.664 24.369 181.996 26.7077C183.363 29.0463 184.046 31.7448 184.046 34.803C184.046 37.8612 183.345 40.5596 181.942 42.8983C180.574 45.2369 178.704 47.0538 176.329 48.3491C173.99 49.6084 171.364 50.238 168.45 50.238ZM168.45 43.6538C169.817 43.6538 171.094 43.33 172.281 42.6824C173.505 41.9988 174.476 40.9914 175.196 39.6602C175.915 38.3289 176.275 36.7099 176.275 34.803C176.275 31.9606 175.519 29.7839 174.008 28.2728C172.533 26.7257 170.716 25.9521 168.557 25.9521C166.399 25.9521 164.582 26.7257 163.107 28.2728C161.667 29.7839 160.948 31.9606 160.948 34.803C160.948 37.6453 161.649 39.84 163.053 41.3871C164.492 42.8983 166.291 43.6538 168.45 43.6538Z" fill="#FAFAFA"/>
<path d="M197.414 24.1712C198.386 22.804 199.717 21.6706 201.408 20.7711C203.135 19.8357 205.096 19.368 207.29 19.368C209.845 19.368 212.148 19.9976 214.198 21.2569C216.285 22.5161 217.922 24.3151 219.11 26.6537C220.333 28.9564 220.944 31.6368 220.944 34.695C220.944 37.7533 220.333 40.4697 219.11 42.8443C217.922 45.1829 216.285 46.9999 214.198 48.2951C212.148 49.5904 209.845 50.238 207.29 50.238C205.096 50.238 203.153 49.7883 201.462 48.8888C199.807 47.9893 198.458 46.856 197.414 45.4888V64H189.859V19.8537H197.414V24.1712ZM213.227 34.695C213.227 32.8961 212.849 31.349 212.094 30.0537C211.374 28.7225 210.403 27.7151 209.179 27.0315C207.992 26.3479 206.697 26.0061 205.294 26.0061C203.926 26.0061 202.631 26.3659 201.408 27.0855C200.221 27.7691 199.249 28.7765 198.494 30.1077C197.774 31.4389 197.414 33.004 197.414 34.803C197.414 36.6019 197.774 38.167 198.494 39.4982C199.249 40.8295 200.221 41.8549 201.408 42.5745C202.631 43.2581 203.926 43.5999 205.294 43.5999C206.697 43.5999 207.992 43.2401 209.179 42.5205C210.403 41.8009 211.374 40.7755 212.094 39.4443C212.849 38.113 213.227 36.53 213.227 34.695Z" fill="#FAFAFA"/>
<circle cx="4.2163" cy="4.2163" r="4.2163" fill="#FAFAFA"/>
</svg>
