<svg width="159" height="46" viewBox="0 0 159 46" fill="none" xmlns="http://www.w3.org/2000/svg">
<path d="M5.68974 8.68413V35.7595H0.252441V8.68413H5.68974Z" fill="#4400A5"/>
<path d="M16.6933 17.3731C17.3924 16.3904 18.3504 15.5758 19.5673 14.9293C20.8101 14.2569 22.2212 13.9208 23.8006 13.9208C25.6389 13.9208 27.296 14.3733 28.7719 15.2784C30.2736 16.1835 31.4517 17.4765 32.3061 19.1574C33.1864 20.8124 33.6266 22.739 33.6266 24.9371C33.6266 27.1352 33.1864 29.0876 32.3061 30.7944C31.4517 32.4753 30.2736 33.7812 28.7719 34.7122C27.296 35.6431 25.6389 36.1086 23.8006 36.1086C22.2212 36.1086 20.823 35.7854 19.6061 35.1389C18.4151 34.4924 17.4442 33.6778 16.6933 32.6951V46H11.256V14.2699H16.6933V17.3731ZM28.0728 24.9371C28.0728 23.6441 27.8009 22.5321 27.2572 21.6012C26.7393 20.6444 26.0403 19.9203 25.1599 19.4289C24.3055 18.9376 23.3734 18.6919 22.3636 18.6919C21.3797 18.6919 20.4476 18.9505 19.5673 19.4677C18.7129 19.9591 18.0138 20.6831 17.47 21.64C16.9522 22.5968 16.6933 23.7217 16.6933 25.0147C16.6933 26.3077 16.9522 27.4326 17.47 28.3894C18.0138 29.3462 18.7129 30.0832 19.5673 30.6004C20.4476 31.0918 21.3797 31.3374 22.3636 31.3374C23.3734 31.3374 24.3055 31.0788 25.1599 30.5616C26.0403 30.0444 26.7393 29.3074 27.2572 28.3506C27.8009 27.3938 28.0728 26.256 28.0728 24.9371Z" fill="#4400A5"/>
<path d="M57.7734 24.5492C57.7734 25.325 57.7216 26.0232 57.6181 26.6439H41.8887C42.0182 28.1955 42.5619 29.4109 43.5199 30.2901C44.4779 31.1694 45.656 31.609 47.0542 31.609C49.0737 31.609 50.5107 30.7427 51.3652 29.01H57.2297C56.6083 31.0788 55.4172 32.7856 53.6566 34.1303C51.896 35.4492 49.734 36.1086 47.1707 36.1086C45.0993 36.1086 43.2351 35.6561 41.578 34.751C39.9468 33.82 38.6652 32.5141 37.7331 30.8332C36.8269 29.1523 36.3738 27.2128 36.3738 25.0147C36.3738 22.7907 36.8269 20.8383 37.7331 19.1574C38.6393 17.4765 39.908 16.1835 41.5392 15.2784C43.1704 14.3733 45.0475 13.9208 47.1707 13.9208C49.2161 13.9208 51.0415 14.3604 52.6468 15.2396C54.278 16.1189 55.5338 17.3731 56.4141 19.0022C57.3203 20.6056 57.7734 22.4546 57.7734 24.5492ZM52.1419 22.9976C52.116 21.6012 51.6111 20.4892 50.6272 19.6617C49.6434 18.8083 48.4394 18.3816 47.0153 18.3816C45.6689 18.3816 44.5297 18.7954 43.5976 19.6229C42.6914 20.4245 42.1347 21.5495 41.9276 22.9976H52.1419ZM47.093 9.42114L41.3062 12.6795V8.72292L47.093 5.58093L52.841 8.72292V12.6795L47.093 9.42114Z" fill="#4400A5"/>
<path d="M71.2963 36.031C69.4062 36.031 67.6973 35.7078 66.1697 35.0613C64.6679 34.4148 63.4769 33.4838 62.5966 32.2684C61.7163 31.053 61.2631 29.6178 61.2373 27.9627H67.0629C67.1406 29.0747 67.529 29.9539 68.2281 30.6004C68.953 31.2469 69.9369 31.5702 71.1797 31.5702C72.4484 31.5702 73.4453 31.2728 74.1703 30.678C74.8952 30.0574 75.2577 29.2557 75.2577 28.273C75.2577 27.4714 75.0117 26.812 74.5198 26.2948C74.0279 25.7776 73.4064 25.3767 72.6556 25.0923C71.9306 24.7819 70.9208 24.4458 69.6262 24.0837C67.8656 23.5665 66.4286 23.0623 65.3152 22.5709C64.2278 22.0537 63.2827 21.2909 62.4801 20.2823C61.7033 19.2479 61.3149 17.8773 61.3149 16.1706C61.3149 14.5673 61.7163 13.1708 62.5189 11.9813C63.3216 10.7917 64.4479 9.88662 65.8978 9.26598C67.3477 8.61948 69.0048 8.29623 70.869 8.29623C73.6654 8.29623 75.9309 8.98152 77.6657 10.3521C79.4263 11.6968 80.3973 13.5846 80.5785 16.0154H74.5975C74.5457 15.0845 74.1444 14.3216 73.3935 13.7268C72.6685 13.1062 71.6976 12.7959 70.4807 12.7959C69.4191 12.7959 68.5647 13.0674 67.9174 13.6104C67.296 14.1535 66.9853 14.9422 66.9853 15.9766C66.9853 16.7007 67.2183 17.3084 67.6843 17.7998C68.1763 18.2652 68.7718 18.6531 69.4709 18.9635C70.1959 19.2479 71.2056 19.5841 72.5002 19.972C74.2609 20.4892 75.6979 21.0064 76.8112 21.5236C77.9246 22.0408 78.8826 22.8166 79.6852 23.851C80.4879 24.8854 80.8892 26.243 80.8892 27.9239C80.8892 29.3721 80.5138 30.7168 79.7629 31.9581C79.012 33.1994 77.9116 34.195 76.4617 34.9449C75.0117 35.669 73.2899 36.031 71.2963 36.031Z" fill="#FF8429"/>
<path d="M97.9147 13.9596C99.5459 13.9596 100.996 14.3216 102.265 15.0457C103.533 15.7439 104.517 16.7912 105.216 18.1877C105.941 19.5582 106.304 21.2133 106.304 23.1528V35.7595H100.866V23.8898C100.866 22.183 100.439 20.8771 99.5848 19.972C98.7303 19.041 97.5652 18.5756 96.0894 18.5756C94.5876 18.5756 93.3966 19.041 92.5163 19.972C91.6619 20.8771 91.2346 22.183 91.2346 23.8898V35.7595H85.7973V7.05495H91.2346V16.9464C91.9337 16.0154 92.8658 15.2913 94.031 14.7741C95.1961 14.2311 96.4907 13.9596 97.9147 13.9596Z" fill="#FF8429"/>
<path d="M121.223 36.1086C119.151 36.1086 117.287 35.6561 115.63 34.751C113.973 33.82 112.665 32.5141 111.707 30.8332C110.775 29.1523 110.309 27.2128 110.309 25.0147C110.309 22.8166 110.788 20.8771 111.746 19.1962C112.73 17.5153 114.063 16.2223 115.746 15.3172C117.429 14.3862 119.307 13.9208 121.378 13.9208C123.449 13.9208 125.326 14.3862 127.009 15.3172C128.692 16.2223 130.013 17.5153 130.971 19.1962C131.955 20.8771 132.447 22.8166 132.447 25.0147C132.447 27.2128 131.942 29.1523 130.932 30.8332C129.948 32.5141 128.602 33.82 126.893 34.751C125.21 35.6561 123.32 36.1086 121.223 36.1086ZM121.223 31.3762C122.207 31.3762 123.126 31.1435 123.98 30.678C124.86 30.1867 125.56 29.4626 126.077 28.5058C126.595 27.549 126.854 26.3853 126.854 25.0147C126.854 22.9718 126.31 21.4072 125.223 20.3211C124.161 19.2091 122.854 18.6531 121.3 18.6531C119.747 18.6531 118.439 19.2091 117.378 20.3211C116.342 21.4072 115.824 22.9718 115.824 25.0147C115.824 27.0576 116.329 28.6351 117.339 29.7471C118.374 30.8332 119.669 31.3762 121.223 31.3762Z" fill="#FF8429"/>
<path d="M142.067 17.3731C142.766 16.3904 143.724 15.5758 144.941 14.9293C146.184 14.2569 147.595 13.9208 149.174 13.9208C151.012 13.9208 152.669 14.3733 154.145 15.2784C155.647 16.1835 156.825 17.4765 157.68 19.1574C158.56 20.8124 159 22.739 159 24.9371C159 27.1352 158.56 29.0876 157.68 30.7944C156.825 32.4753 155.647 33.7812 154.145 34.7122C152.669 35.6431 151.012 36.1086 149.174 36.1086C147.595 36.1086 146.196 35.7854 144.98 35.1389C143.788 34.4924 142.818 33.6778 142.067 32.6951V46H136.629V14.2699H142.067V17.3731ZM153.446 24.9371C153.446 23.6441 153.174 22.5321 152.631 21.6012C152.113 20.6444 151.414 19.9203 150.533 19.4289C149.679 18.9376 148.747 18.6919 147.737 18.6919C146.753 18.6919 145.821 18.9505 144.941 19.4677C144.086 19.9591 143.387 20.6831 142.843 21.64C142.326 22.5968 142.067 23.7217 142.067 25.0147C142.067 26.3077 142.326 27.4326 142.843 28.3894C143.387 29.3462 144.086 30.0832 144.941 30.6004C145.821 31.0918 146.753 31.3374 147.737 31.3374C148.747 31.3374 149.679 31.0788 150.533 30.5616C151.414 30.0444 152.113 29.3074 152.631 28.3506C153.174 27.3938 153.446 26.256 153.446 24.9371Z" fill="#FF8429"/>
<ellipse cx="3.03435" cy="3.03046" rx="3.03435" ry="3.03046" fill="#FF8429"/>
</svg>
