<svg width="60" height="60" viewBox="0 0 60 48" fill="none" xmlns="http://www.w3.org/2000/svg">
<path fill-rule="evenodd" clip-rule="evenodd" d="M0.9375 4.95703C0.9375 2.53 2.88926 0.5625 5.29688 0.5625H38.7188C41.1264 0.5625 43.0781 2.53 43.0781 4.95703V10.8164H49.1399C50.2961 10.8164 51.4049 11.2794 52.2225 12.1035L57.7857 17.7116C58.6032 18.5357 59.0625 19.6535 59.0625 20.819V38.6484C59.0625 41.0755 57.1107 43.043 54.7031 43.043H53.25C53.189 43.043 53.1288 43.0392 53.0697 43.0318C52.4283 45.5647 50.1499 47.4375 47.4375 47.4375C44.7291 47.4375 42.4534 45.5702 41.8081 43.043H15.2856C14.6404 45.5702 12.3646 47.4375 9.65625 47.4375C6.44609 47.4375 3.84375 44.8142 3.84375 41.5781C3.84375 38.3421 6.44609 35.7188 9.65625 35.7188C12.3646 35.7188 14.6404 37.5861 15.2856 40.1133H40.1719V4.95703C40.1719 4.14802 39.5213 3.49219 38.7188 3.49219H5.29688C4.49434 3.49219 3.84375 4.14802 3.84375 4.95703V41.5781V43.043C2.23867 43.043 0.9375 41.7313 0.9375 40.1133V4.95703ZM53.25 40.1133C53.189 40.1133 53.1288 40.1171 53.0697 40.1244C52.4283 37.5916 50.1499 35.7188 47.4375 35.7188C45.7015 35.7188 44.1432 36.486 43.0781 37.7024V13.7461H49.1399C49.5253 13.7461 49.8949 13.9004 50.1674 14.1751L55.7306 19.7832C56.0032 20.0579 56.1562 20.4305 56.1562 20.819V38.6484C56.1562 39.4574 55.5057 40.1133 54.7031 40.1133H53.25ZM47.4375 44.5078C45.8324 44.5078 44.5312 43.1961 44.5312 41.5781C44.5312 39.9601 45.8324 38.6484 47.4375 38.6484C49.0426 38.6484 50.3437 39.9601 50.3437 41.5781C50.3437 43.1961 49.0426 44.5078 47.4375 44.5078ZM12.5625 41.5781C12.5625 43.1961 11.2613 44.5078 9.65625 44.5078C8.05117 44.5078 6.75 43.1961 6.75 41.5781C6.75 39.9601 8.05117 38.6484 9.65625 38.6484C11.2613 38.6484 12.5625 39.9601 12.5625 41.5781Z" fill="#FF8429"/>
</svg>
